PathFileType	4	(X/Y/Z)	c:/Users/goper/Files/vsCode/490R/osim_files/C05/C05_SSWS_04.trc
DataRate	CameraRate	NumFrames	NumMarkers	Units                	OrigDataRate	OrigDataStartFrame	OrigNumFrames
250.00	250.00	6	36	mm	250.0	2659	3545
                Frame#	Time	LPSIS			LASIS			LTH1			LTH2			LTH3			LTH4			LLFE			LMFE			LSH1			LSH2			LSH3			LSH4			LLMAL			LMMAL			LCAL			LMTP5			LTOE			LMTP1			RPSIS			RASIS			RTH1			RTH2			RTH3			RTH4			RLFE			RMFE			RSH1			RSH2			RSH3			RSH4			RLMAL			RMMAL			RCAL			RMTP1			RTOE			RMTP5		
		X1	Y1	Z1	X2	Y2	Z2	X3	Y3	Z3	X4	Y4	Z4	X5	Y5	Z5	X6	Y6	Z6	X7	Y7	Z7	X8	Y8	Z8	X9	Y9	Z9	X10	Y10	Z10	X11	Y11	Z11	X12	Y12	Z12	X13	Y13	Z13	X14	Y14	Z14	X15	Y15	Z15	X16	Y16	Z16	X17	Y17	Z17	X18	Y18	Z18	X19	Y19	Z19	X20	Y20	Z20	X21	Y21	Z21	X22	Y22	Z22	X23	Y23	Z23	X24	Y24	Z24	X25	Y25	Z25	X26	Y26	Z26	X27	Y27	Z27	X28	Y28	Z28	X29	Y29	Z29	X30	Y30	Z30	X31	Y31	Z31	X32	Y32	Z32	X33	Y33	Z33	X34	Y34	Z34	X35	Y35	Z35	X36	Y36	Z36

2659	10.63200	-1561.58472	1012.98969	311.32523	-1762.69983	982.46729	354.49710	-1749.63330	668.54694	400.62198	-1780.21558	614.15533	389.31564	-1820.38208	700.04297	398.66220	-1840.93396	642.40887	387.60901	-1862.12585	539.87750	368.86340	-1851.75806	530.85852	250.71072	-1830.83191	345.09637	372.35977	-1848.48206	304.80670	368.35562	-1891.46411	363.04160	384.47205	-1899.45166	320.65674	377.47867	-1944.31738	100.08259	339.64944	-1969.18201	120.74619	257.19031	-1896.97681	67.08333	284.27106	-2090.37744	68.95989	369.92429	-2121.54688	110.84991	310.07129	-2111.44727	87.35989	261.10901	-1560.65369	1024.47095	202.78258	-1748.29565	979.95184	121.77350	-1558.51392	659.22491	90.31500	-1558.17383	597.65112	104.98624	-1632.95227	652.27014	92.54356	-1621.54041	591.69696	105.72019	0.00000	0.00000	0.00000	-1570.86755	502.00229	123.07439	-1425.79578	395.66104	108.95906	-1407.38550	351.35742	115.39644	-1477.69690	364.25214	114.44289	-1452.30774	325.75101	120.66809	-1303.11365	138.02153	159.08847	-1326.99402	141.61713	244.22806	-1231.06299	125.75444	206.34502	-1430.42944	42.27439	231.77061	-1453.17249	58.39216	182.79030	-1397.70764	39.72149	121.53451
2660	10.63600	-1566.89771	1013.34106	311.72479	-1768.21289	982.80261	354.87054	-1755.63904	669.03418	400.63803	-1786.01416	614.84192	389.47379	-1826.11707	700.80829	398.18396	-1846.56482	643.01044	387.37299	-1867.88281	540.75354	368.54178	-1855.32727	531.02551	250.62782	-1835.13599	345.79471	372.66992	-1852.15186	305.22519	368.46436	-1896.01013	363.14841	384.35532	-1902.88940	320.31430	377.19333	-1945.77234	99.84412	339.58917	-1970.64612	120.13410	257.03644	-1897.81116	67.46983	284.34299	-2091.43335	66.99241	369.73413	-2123.25317	108.24902	309.83069	-2112.56494	84.78558	260.88892	-1565.71570	1024.39575	203.00667	-1753.75269	979.45142	122.16106	-1563.81726	658.67932	91.55994	-1563.69922	597.06927	106.22657	-1638.48999	651.65051	93.50220	-1627.14795	591.04944	106.60442	0.00000	0.00000	0.00000	-1576.55017	501.30530	123.95585	-1430.41187	396.41708	109.42287	-1411.47913	352.30057	115.82783	-1482.02368	364.43988	114.95805	-1456.08264	326.18661	121.13424	-1304.77356	139.89268	158.69041	-1328.95203	143.18430	243.82983	-1232.77234	128.65616	206.06851	-1430.78406	42.29884	231.82843	-1453.11475	57.87832	182.85832	-1397.89075	39.80480	121.48624
2661	10.64000	-1572.28735	1013.79016	312.06390	-1773.52808	983.24036	355.23218	-1761.54956	669.87384	400.89993	-1791.91675	615.60950	389.67468	-1831.95447	701.73999	397.71405	-1852.39465	643.88733	387.07703	-1873.92505	541.81500	368.14139	-1858.98804	531.63708	250.68515	-1839.38464	346.60849	373.03647	-1855.79724	305.58838	368.55417	-1900.50537	363.39148	384.17728	-1906.93591	320.44345	376.99060	-1946.95715	99.70815	339.64569	-1972.04065	119.61554	256.99658	-1898.67322	67.91546	284.38525	-2092.28833	64.89350	369.69028	-2124.87036	105.72742	309.88690	-2113.58618	82.27876	260.86765	-1571.15344	1024.25574	203.21324	-1759.12952	978.95221	122.58434	-1569.93127	657.85840	93.14683	-1569.43958	596.47070	107.49972	-1644.09485	650.98657	94.35712	-1632.80579	590.40558	107.50271	0.00000	0.00000	0.00000	-1582.36340	500.60812	124.80321	-1435.13086	397.29752	109.86195	-1415.72852	353.34198	116.24229	-1486.58521	364.54367	115.61320	-1460.09985	326.67865	121.48734	-1306.59985	141.85759	158.25626	-1330.94775	144.89445	243.39268	-1234.57690	131.73947	205.80482	-1431.13806	42.34015	231.84567	-1453.02759	57.46272	182.89024	-1398.11987	39.92358	121.43141
2662	10.64400	-1577.54260	1014.31281	312.37454	-1779.00842	983.80212	355.61334	-1767.50439	670.73071	401.25012	-1797.91016	616.57080	389.93808	-1837.97107	702.83307	397.33072	-1858.51721	644.98718	386.85526	-1880.12573	542.86896	367.50409	-1863.09473	532.53473	250.88638	-1843.58728	347.38879	373.61429	-1859.79041	306.41336	369.10721	-1905.03186	363.63910	384.13412	-1911.54089	320.95157	377.01395	-1948.30432	99.48969	339.80194	-1973.58276	119.15681	257.13046	-1899.35327	68.41028	284.45938	-2093.09888	62.72816	369.80264	-2126.33447	103.25478	310.11572	-2114.56445	79.93192	260.93900	-1576.70117	1024.19495	203.44057	-1764.60205	978.51617	123.02572	-1575.75000	657.30499	94.44258	-1575.33960	595.85504	108.77453	-1649.85132	650.36688	95.29353	-1638.62854	589.79297	108.39930	0.00000	0.00000	0.00000	-1588.36108	499.89230	125.67391	-1439.94690	398.20975	110.32520	-1420.09363	354.45410	116.62675	-1490.99707	364.85297	115.96020	-1464.20972	327.15286	121.95235	-1308.45447	143.89085	157.68938	-1333.04236	146.60414	242.88289	-1236.54834	134.97148	205.47946	-1431.47156	42.35651	231.82695	-1452.97961	57.17117	182.72856	-1398.39893	40.03061	121.36572
2663	10.64800	-1582.84937	1014.93561	312.60138	-1784.19214	984.54260	356.08322	-1775.84058	672.83459	402.53363	-1804.17993	617.71588	390.32568	-1844.01489	704.08575	396.94614	-1864.66101	646.17316	386.71548	-1886.47791	544.04755	366.79691	-1867.27649	533.64172	251.45380	-1847.70801	348.24460	374.33981	-1863.36230	307.12402	369.70352	-1909.95398	364.39743	383.61948	-1915.55847	321.20578	377.01471	-1949.33093	99.35780	339.98767	-1974.98157	118.73898	257.41614	-1899.95776	68.84887	284.58414	-2093.79395	60.68841	369.99918	-2127.70020	100.82970	310.42908	-2115.46118	77.74324	261.16040	-1582.09753	1024.25671	203.57744	-1770.06323	978.07361	123.45229	-1581.73511	656.68817	95.78014	-1581.30701	595.25848	110.03663	-1655.77490	649.79260	96.21415	-1644.59814	589.16241	109.22954	0.00000	0.00000	0.00000	-1594.52039	499.21155	126.53012	-1444.90417	399.21576	110.82427	-1424.59082	355.63931	117.07549	-1495.53528	365.28864	116.23791	-1468.34875	327.86652	122.18484	-1310.53333	145.97885	157.10405	-1335.30029	148.41417	242.24101	-1238.65857	138.34517	205.09113	-1431.83923	42.42446	231.81302	-1452.96802	56.97449	182.55655	-1398.67920	40.11395	121.26054
2664	10.65200	-1588.04736	1015.55542	312.77789	-1789.80737	985.08972	356.48071	-1782.06531	674.04010	402.97449	-1810.42346	618.90466	390.73383	-1850.08582	705.37244	396.64484	-1870.73071	647.44501	386.57458	-1892.77002	545.24646	366.05127	-1872.02527	534.79132	252.01318	-1851.87769	348.96405	375.13113	-1867.17163	307.65021	370.34045	-1914.26868	364.74579	383.76236	-1918.91199	321.22232	376.96240	-1950.35437	99.16689	340.23087	-1976.17639	118.51977	257.67700	-1900.57581	69.22404	284.75345	-2094.44092	58.53624	370.25766	-2128.96338	98.64905	310.77750	-2116.55786	75.87679	261.49442	-1587.63062	1024.26550	203.78108	-1775.62720	977.70319	123.98020	-1587.80005	656.07849	97.09196	-1587.48975	594.65314	111.25752	-1661.80798	649.18683	97.08074	-1650.76355	588.55402	110.11698	0.00000	0.00000	0.00000	-1601.10388	498.48553	127.65799	-1450.00476	400.31958	111.23623	-1429.23462	357.01178	117.39861	-1500.23853	365.72888	116.48064	-1472.63293	328.59995	122.41203	-1312.80164	148.15500	156.45082	-1337.72754	150.37027	241.60841	-1240.83630	141.94649	204.68869	-1432.22485	42.49776	231.80173	-1453.01501	56.91794	182.36348	-1399.02673	40.22390	121.14455
